<?xml version="1.0" encoding="utf-8"?>
<!-- Generator: Adobe Illustrator 27.6.1, SVG Export Plug-In . SVG Version: 6.00 Build 0)  -->
<svg version="1.1" id="Layer_1" xmlns="http://www.w3.org/2000/svg" xmlns:xlink="http://www.w3.org/1999/xlink" x="0px" y="0px"
	 viewBox="0 0 1187.2 445.8" style="enable-background:new 0 0 1187.2 445.8;" xml:space="preserve">
<style type="text/css">
	.st0{fill:#FE7271;}
	.st1{fill:#FEFCFC;}
	.st2{fill:#FEFCFB;}
	.st3{fill:#FEFBFB;}
	.st4{fill:#FEF8F8;}
	.st5{fill:#FEF9F9;}
	.st6{fill:#FEF7F7;}
	.st7{fill:#FEF1F1;}
	.st8{fill:#FEEAEA;}
	.st9{fill:#FEF6F6;}
	.st10{fill:#FEF5F5;}
	.st11{fill:#FF9999;}
	.st12{fill:#FE6D6D;}
	.st13{fill:#71C362;}
	.st14{fill:#A1DD85;}
	.st15{fill:#6F4161;}
</style>
<path class="st0" d="M938.8,175c-29-7.9-56.3,12.6-59,43.6c-1.7,19.1,6.5,34.8,15.6,50.3c6.5,11,14.5,21.3,18.9,33.4
	c6.1,17-0.4,33.2-14.5,37c-17.2,4.6-32-4.8-36.3-22.7c-1.6-6.8-1.5-13.5-0.4-20.4c1.2-7.4,4.2-14.3,6-21.5
	c1.4-5.6,1.8-11.6-5.2-14.4c-7-2.8-10.6,1.8-13.7,6.8c-1.8,3-3.1,6.4-4.5,9.7c-5,11.5-10.8,22.7-18.1,32.9
	c-10.3,14.4-22.6,26.4-41.1,29.3c-11.9,1.9-21.7-1.7-29.2-11.3c-3.9-5-4.2-8.5,2.6-11.5c15.1-6.6,29.2-15.1,41.9-25.6
	c18.4-15.2,34.6-32.2,39.8-56.8c4.3-20.2-5.1-34.8-25.1-39.4c-22.3-5.1-41.2,1.7-57.8,16.4c-16.5,14.7-28.9,32.5-37.3,53
	c-6.7,16.3-14.1,32.3-22.7,47.6c-4.7,8.4-10.3,16.2-18,22.1c-5.2,4-11.4,9-17.8,5.2c-5.7-3.5-3.4-10.9-2.5-16.6
	c3.4-21.8,13.1-41.4,22.1-61.2c6.8-14.9,15.5-29,19.9-44.9c4.2-14.9-4.4-25.4-19.9-24.8c-9.3,0.4-18.1,3.3-27,6.1
	c-8.4,2.6-16.7,5.4-25.8,8.4c1.1-10.9,4-20.5,1.1-30.3c-3.7-12.7-14.3-18.2-26.4-12.8c-11.6,5.1-18.6,14.7-19.7,26.9
	c-0.9,9.4-5,9.9-12.7,8.2c5.2-12.4,11.5-24.4,15-37.3c5.5-20.1,6-39.7-8-56.9c-12.4-15.3-30-20.8-48.5-21.3
	c-53.4-1.5-95.2,22.5-129.3,61.9c-3.8,4.4-5.3,9.8-0.7,14.6c5,5.2,10.5,3.1,15.2-0.8c4.3-3.7,8.1-8,12.2-11.8
	c20.5-19.3,42.8-35.3,71.5-40.1c30-5,47.2,10.9,43.7,40.7c-0.5,3.8-1.6,7.6-2.8,11.3c-4.2,13.4-11,25.7-16.9,38.4
	c-3.1,6.8-7.8,9.6-14.8,10.7c-17.5,2.9-33.8,9.5-49.7,17.1c-22.8,11-35.5,30.1-43.4,53.3c-1.8,5.4-0.4,9.5,4.5,12.1
	c5.3,2.8,10,1.1,13.2-3.7c2.1-3.2,3.7-6.8,5.1-10.4c11.9-29,37.4-37.9,64.7-45c0.6,3.8-1.5,5.8-2.6,8
	c-19.1,38.3-45.3,120.1-57.8,161c-3.6,11.7,1.4,27.7,12.2,31.2c15.6,5.1,26.3-0.9,31.3-16.5c13.9-43.3,44-136.1,64.3-176.8
	c5.9-11.8,12.4-19.8,26.9-17.8c3,0.4,6.7-0.7,9.5-2.2c6.2-3.3,7.4,3.2,11,5c3.5,1.8,2.5,4.6,1.3,7.6c-8.4,20.1-15.9,40.5-25.5,60.1
	c-1.6,3.2-3.3,6.3-3.5,10.1c-0.3,4.6,0.7,8.3,5.3,10.2c4.5,1.8,8.4,0.4,11.3-3c2.1-2.4,3.7-5.4,5-8.4c9.5-20.6,18.8-41.3,28.2-61.9
	c1.2-2.7,1.5-6.4,4.5-7.4c10.9-3.6,21.9-6.7,33.1-10.1c0.2,4.7-2.2,7.2-3.6,10.1c-14.5,28.5-27,57.8-32.8,89.5
	c-4.9,27.1,9.7,44.5,37.1,43.9c13.6-0.3,25.5-5.3,36.1-13.7c7.5-6,13.3-13.5,19.5-20.9c19.2,46.2,100.2,47.7,129.8-2
	c11.9,27.6,33.6,38.4,62.5,36.5c33.3-2.1,53.6-25.1,49-56c-2-13.6-9.1-25.1-16.3-36.5c-7-11.1-14.4-22.1-18.1-34.8
	c-3.5-12.1-2.4-23.7,6.1-33.6c2.9-3.4,6.7-5.2,11.2-4.2c4.8,1,5.9,5.1,7,9.4c2.5,9.8,0.1,19-2.9,28.1c-2.3,6.9-0.9,12.2,5.9,14.5
	c6.9,2.3,11.5-1.5,13.9-7.9c3.1-8.1,5-16.6,5.5-25.3C968.5,196.8,956.6,179.8,938.8,175z M784.8,230.3c4.9-5.8,11.7-9.3,19.4-10.3
	c8.8-1.1,13.5,4.1,12.1,12.9c-1,6-3.2,11.5-6.6,16.5c-13.6,20.1-32.9,33.1-56.2,45.4C760.4,269.5,769.6,248.4,784.8,230.3z"/>
<path class="st0" d="M1160.4,249.2c-5.6-2.4-11.2-1.6-14.7,4.6c-1,1.8-2.1,3.6-2.9,5.5c-9.7,21.2-20.9,41.6-32.9,61.5
	c-3.4,5.6-7.1,11.1-12.1,15.5c-7.8,7-13.6,5.2-16.1-4.7c-1.4-5.6-1.3-11.3-0.1-16.9c6.3-28.7,16-56.1,31.1-81.5
	c1.8-3.1,3.8-6,4.3-9.7c0.7-4.9-0.5-9.1-4.8-11.6c-4.2-2.5-8.4-1.2-11.2,2.4c-4.1,5.2-5.9,2.7-8.9-1.3c-10.6-14-25.2-20.1-42.4-17.7
	c-16.2,2.2-30.1,10.1-40.9,22.2c-24.6,27.5-35.2,61.7-44.6,96.4c-2.1,7.8-2.5,15.9-1.8,24c0.9,12.1,7.8,20.6,19.5,23.9
	c15,4.3,27.5-1.5,39.2-10.1c14.1-10.3,25.5-23.4,36.4-36.8c4.1-0.7,2.6,1.7,2,3.6c-0.2,4.2-0.5,8.4-0.4,12.5
	c0.2,12.5,2.7,24.3,15.7,29.6c13.8,5.6,26.3,2.5,37.1-7.8c8.7-8.3,15.6-18,21.6-28.4c11.6-20.2,21.6-41.2,30.2-62.8
	C1165.4,256.9,1165.9,251.6,1160.4,249.2z M1032.2,311.7c-3.7,3.9-7.5,7.7-12.4,10.2c-6.3,3.2-11.2,0.8-12.4-6.2
	c-0.7-4.1-0.6-8.3,0.6-12.4c7-23.5,16.1-46.1,29.7-66.6c2.1-3.2,4.6-6.2,7.2-9.1c6.3-6.7,13.4-13.1,23.3-8.6
	c9.8,4.4,12.9,13.4,12.8,25.1c0.2,3.9-1.3,8.6-4.5,12.8C1062.6,275.8,1048.3,294.5,1032.2,311.7z"/>
<path class="st1" d="M628.7,324.3c1.8-20.9,9.4-40,17.4-59c3.5-8.2,7.5-16.2,11.6-24.2c1.4-2.7,2.5-7.6,6.5-5.6
	c4.7,2.3,1,6.4-0.5,9.2C653,264.1,644.4,284.4,639,306c-1.5,6.1-2.8,12.2-3,18.5c-0.1,3.7,0.5,9.6-4,9.4
	C626.8,333.7,629.7,327.7,628.7,324.3z"/>
<path class="st2" d="M901.6,191.3c2.2-0.1,3.5,1.2,2.9,3.3c-0.5,2-1.5,3.9-2.6,5.6c-9.8,14.8-9.6,30-2.1,45.7c1.9,4,6.9,10.1,2,12.4
	c-5.2,2.5-6.3-5.5-8.3-9.3c-9.1-18.1-9.1-36,2.8-53C897.6,193.9,899,191.9,901.6,191.3z"/>
<path class="st3" d="M162.1,481.6c-0.7,1.9-1.6,4.4-2.7,6.9c-6.4,14.7-12.6,29.6-17.1,45c-0.9,2.9-1.3,7.7-5.6,6.6
	c-4.4-1.2-2.4-5.4-1.4-8.4c4.8-15.7,10.1-31.1,16.7-46.1c1.2-2.7,2.7-5.5,4.8-7.3C159.5,476,161.8,477.1,162.1,481.6z"/>
<path class="st3" d="M257.8,291.7c0,1.4,0,2,0,2.6c-0.3,3.4,0.8,8.7-3.4,8.8c-4.1,0.1-3.6-5.2-3.7-8.6c-0.3-10.7-3.3-20.3-10.7-28.4
	c-1.9-2.1-6.1-4.8-1.7-7.9c3.7-2.6,5.7,1.2,7.9,3.5C254.1,270.4,257.3,280.9,257.8,291.7z"/>
<path class="st4" d="M266.9,345.8c0.7-5.5,2.3-10.7,6.2-15c1.4-1.6,3.2-3.1,5.3-1.4c1.6,1.3,1.2,3.3,0.2,4.8
	c-2.5,4.1-4.1,8.4-4.6,13.2c-0.3,2.5-1.3,5-4.3,4.4C267,351.3,267,348.4,266.9,345.8z"/>
<path class="st5" d="M433.7,384.2c-3.9-0.1-4.7-2.2-3.6-4.8c0.8-1.8,2.3-3.7,3.9-4.7c4.3-2.6,6.5-9,13-7.6c0.4,0.1,1.1,2.4,0.7,3.1
	C444.2,376.3,438.7,380.2,433.7,384.2z"/>
<path class="st6" d="M598.5,334.2c1.9,0.2,5.8-0.7,6.1,3.3c0.2,3.3-3.4,3.4-6,4c-3.2,0.7-6.3,1.5-9.4,2.5c-2.3,0.7-4.2,0.4-5.2-1.9
	c-1.1-2.4,0.4-3.9,2.5-4.9C590,335.4,593.6,334,598.5,334.2z"/>
<path class="st7" d="M232.7,252.2c-0.3,3-2.3,3.4-4.5,3.3c-2.9-0.1-5.5-1.2-5.5-4.5c0-1.9,2-2.8,4-2.7
	C229.5,248.4,232,249,232.7,252.2z"/>
<path class="st8" d="M290.2,323.6c-0.7,2.9-2.8,4.3-5.6,4.6c-1.9,0.2-3.5-1-3.1-3.1c0.5-3,2.9-4.2,5.6-4.6
	C289.2,320.1,290.2,321.4,290.2,323.6z"/>
<path class="st9" d="M458.2,357.9c2.1,0,3.7,0.8,3.7,2.9c-0.1,3.3-2.7,4.2-5.3,4.8c-2,0.4-3.4-0.8-3.5-2.8
	C453,359.2,455.8,358.7,458.2,357.9z"/>
<path class="st10" d="M706.6,367.7c-0.1,3.9-12.3,15-15.3,14.4c-2.4-0.4-4-2.1-2.5-4.4c3.4-5.3,7.9-9.7,13.7-12.3
	C704.8,364.3,706.4,365.6,706.6,367.7z"/>
<path class="st10" d="M716.7,364.8c-2.8,0.1-5.6-0.4-5.1-2.8c1.1-5.4,6.2-5.6,10.4-6.5c2.2-0.5,5.8-0.4,4.9,3
	C725.5,363.5,719.9,363,716.7,364.8z"/>
<g>
	<g>
		<path class="st11" d="M26.6,325.4c-3-14.6-2.9-29.4-2.7-44.2c0.3-29.1,3.9-57.8,10.9-86.1c8.2-32.9,25.6-58.8,56.5-74.1
			c16-7.9,33.2-12.4,51.2-13.1c3.3-0.1,6.5-0.4,9.8-0.6c1.8-1.4,3.8-0.9,5.8-0.9c10.6,0.5,20.9,2.5,31.1,5.2
			c8.4,2.3,16.6,5.1,24.3,9.2c8.5,3.5,16.4,8.1,23.8,13.6c1.3,1.1,2.3,2.3,2.8,3.9c1.5,21.6-1.4,42.6-7.1,63.4
			c-3,11.1-7.5,21.7-11.7,32.4c-2.1,5.4-5.4,10.3-8.9,15c-2.2,12.6-5.1,22.8-14.4,23c-0.4,2.3-3,2.6-4,4.8
			c-9.4,13.4-21.4,24.4-34.3,34.3c-9.7,7.4-20.2,13.8-31.5,18.6c-1.5,0.6-3,1.4-4.7,1.2c-6.2,2.9-7.1,9.6-16.9,4.2
			c-0.5-0.3-0.5,1-0.8,1.4c-9.5,4-19.6,3.8-29.6,3.9c-2.2,0-4.4-0.3-6.5,0.3c-1.5,0.2-2.9,0-4.4-0.6c-10.5-2.2-21-4.6-30.7-9.5
			C31.8,329.4,29,327.8,26.6,325.4z"/>
	</g>
	<path class="st12" d="M211.8,249.3c4.1-9.1,9.2-17.7,12.8-27c8.2-21.2,13.2-43.1,14.3-65.8c0.3-6,0.4-12,0.6-18
		c0.5-0.2,1.1-0.5,1.6-0.2c9,5.5,17.1,11.7,22.2,21.2c10.9,13.6,20.4,28.1,25.9,44.9c7.8,24.1,8.4,48-1.2,71.9
		c-7.3,18.2-18.9,33.7-31.5,48.4c-26.5,31.2-56.6,58.2-92.2,78.7c-14.8,8.5-30.3,15.4-47.2,18.7c-32,6.3-56.8-4.8-72.3-33.4
		c-10.7-19.7-16.1-41.1-18.2-63.4c3.4-1.3,4.7,2.2,6.9,3.3c9.4,4.5,19.2,7.4,29.4,9.5c1.2,0.2,2.4,0.7,3.6,1c0,0,48.9-4.4,57.2-8.4
		c13.9-6.6,27.4-13.8,39.3-23.6c11-9.1,21.3-18.9,29.9-30.4"/>
	<path class="st12" d="M70,339.6c7.9-1,15.9,0.3,23.8-1.1c3.7-0.7,7.5-1.2,11.3-1.9"/>
	<path class="st13" d="M237,136c-7.8-4.9-15.6-9.9-24-13.7c-0.9-2.7,0.4-5,1.5-7.3c9.8-21,19.7-42.1,29.5-63.1
		c1.2-2.5,2.8-4.7,4.9-6.5c2.5,0.7,2.1,3,2.5,4.7c3.2,13.2,5.3,26.5,5,40.1c-0.1,3.4,0.6,4.2,4.2,3.7c22-2.8,42.8,2,63.1,10
		c-0.7,2.6-3.1,2.9-5.1,3.6c-25.2,9.2-50.4,18.3-75.7,27.4C241,135.6,239.1,136.1,237,136z"/>
	<path class="st14" d="M249,45.4C237,71,225,96.7,213.1,122.3c-8-3.8-16.4-6.7-24.8-9.2c-0.6-0.7-1.1-1.5-1.3-2.4
		c-0.7-15.5,6.8-27.4,17-38c0.8-0.8,1.7-1.4,2.8-1.5c2.3-0.1,3.4-2,4.9-3.2C223.1,58.8,235.2,50.8,249,45.4z"/>
	<path class="st14" d="M237,136c25-9.1,50-18.3,75-27.4c3.9-1.4,7.8-3.1,11.7-4.6c-2,7.3-7,12.9-11.2,18.8
		c-7.9,11.1-17,21-28.4,28.7c-6.3,4.3-13.3,6.8-20.8,8.1c-7.6-7.4-14.7-15.4-23.8-21C238.7,137.7,237.9,136.8,237,136z"/>
	<path class="st14" d="M187.6,111.8c0.2,0.4,0.4,0.9,0.6,1.3c-11.7-3.3-23.8-4.4-35.9-5.7c-11.1-20.7-7.4-42-2.2-63.3
		c1.5-6,2.8-12.1,5.9-17.6c2.6,0.7,2.8,3.2,3.6,5.1c8.8,24.2,17.5,48.4,26.3,72.6C186.8,106.8,187.1,109.3,187.6,111.8z"/>
	<path class="st13" d="M187.6,111.8c-3.2-8.4-6.4-16.7-9.5-25.1c-7.4-20-14.8-40.1-22.1-60.1c2.1-1.6,3.5,0.4,4.8,1.2
		c15.6,9.6,30.2,20.5,41.1,35.4c1.8,2.5,3.2,5.3,4.8,8c-4,5.5-9,10.3-12.5,16.3C189.8,94.9,188.4,103.3,187.6,111.8z"/>
	<path class="st15" d="M96.7,192.8c-1.4,2.9-3.4,5.4-5.6,7.6c-0.9,0.9-2.1,1.8-3.4,1.3c-1.4-0.5-1.5-2-1.6-3.3
		c-0.3-3.6,0.1-7.2,1.1-10.6c0.9-3.4,4.3-5.1,7.5-3.9c2.8,1.1,4,4.6,2.6,7.7C97,192.1,96.9,192.4,96.7,192.8z"/>
	<path class="st15" d="M145,157.5c-1.4,2.4-3.6,5.2-6.4,7.5c-0.9,0.7-1.9,1.6-3.2,1c-1.4-0.6-1.4-1.9-1.4-3
		c-0.3-3.9,0.6-7.7,1.9-11.4c1-2.9,4.7-4.2,7.5-3C146.2,149.8,147.1,153.3,145,157.5z"/>
	<path class="st15" d="M79.3,167.6c-1.1,2-3.2,4.8-6,7.1c-2.3,1.8-3.8,1.3-4.1-1.5c-0.6-4.3,0-8.6,1.5-12.6c1.1-2.8,4.5-3.8,7.3-2.5
		C81.3,159.8,81.9,162.4,79.3,167.6z"/>
	<path class="st15" d="M129.5,199.6c-1.6,2.6-3.7,5.6-6.9,7.8c-2.2,1.5-3.7,1-4-1.6c-0.6-4.4,0.3-8.7,2-12.8
		c1.1-2.6,4.9-3.6,7.2-2.4C130.8,192.2,131.5,195.5,129.5,199.6z"/>
	<path class="st15" d="M118,243.4c-1.4,2.4-3.6,5.3-6.4,7.5c-2.6,2-4.4,1.2-4.5-2.1c-0.2-3.8,0.5-7.6,1.8-11.2
		c1.1-3,4.6-4.5,7.4-3.3C119.2,235.7,120.1,239.1,118,243.4z"/>
	<path class="st15" d="M119.4,139.6c-0.9,1.7-3,4.5-5.7,6.7c-2.3,1.8-3.8,1.2-4.3-1.7c-0.6-4,0.1-8,1.3-11.8c1-3.2,4.5-4.5,7.6-3
		C121.4,131.2,122,134.2,119.4,139.6z"/>
	<path class="st15" d="M96.1,277.4c-0.6,4.8-3.9,7.8-7.4,10.6c-1.5,1.3-2.8,0.7-3.1-1.3c-0.4-2.1-0.1-4.1,0.3-6.2
		c0.2-0.9,0.4-1.7,0.7-2.6c0.8-2,1.5-4.3,4.2-4.5C93.6,273.4,95.2,275,96.1,277.4z"/>
	<path class="st15" d="M83.3,231.1c-1.3,2.8-2.8,4.9-4.6,6.7c-1.9,1.9-3.4,1.4-3.9-1.3c-0.6-3.2-0.3-6.4,0.5-9.4
		c0.8-3,3.3-4.2,6-3.2c2.9,1.1,3.8,3.3,2.5,6.2C83.6,230.6,83.3,231,83.3,231.1z"/>
	<path class="st15" d="M66.8,204c-0.7,2.1-2,3.9-3.5,5.5c-1.4,1.5-2.8,1.3-3.3-0.7c-1-3.6-1.2-7.3-0.2-10.9c0.6-2.2,3.4-3.4,5.6-2.6
		c2.4,0.9,3.7,3.3,2.8,5.7C67.8,202.1,67.3,203,66.8,204z"/>
	<path class="st15" d="M69.5,257.6c3.2,2.9,3.2,4.3,0,9.6c-0.8,1.3-1.6,3.2-3.4,2.8c-1.7-0.4-1.6-2.4-1.6-3.8
		c-0.1-3.3-1.3-7.2,3.2-8.8C68.3,257.6,68.9,257.9,69.5,257.6z"/>
	<path class="st15" d="M50.7,234.2c-0.6,1.4-1.3,2.7-2.3,3.8c-1.5,1.6-2.5,1-3-0.6c-0.8-2.5-1-5.1-0.4-7.7c0.5-2.4,2.7-3.6,4.7-2.9
		c1.9,0.6,2.9,3.1,2.1,5.3C51.4,232.8,51,233.5,50.7,234.2z"/>
	<path class="st15" d="M248.3,163.2c-1.4,2.4-3.6,5.2-6.4,7.5c-0.9,0.7-1.9,1.6-3.2,1c-1.4-0.6-1.4-1.9-1.4-3
		c-0.3-3.9,0.6-7.7,1.9-11.4c1-2.9,4.7-4.2,7.5-3C249.5,155.6,250.4,159,248.3,163.2z"/>
	<path class="st15" d="M170.4,196c-1.1,2-3.2,4.8-6,7.1c-2.3,1.8-3.8,1.3-4.1-1.5c-0.6-4.3,0-8.6,1.5-12.6c1.1-2.8,4.5-3.8,7.3-2.5
		C172.4,188.2,173,190.8,170.4,196z"/>
	<path class="st15" d="M211.4,161.3c-0.9,1.7-3,4.5-5.7,6.7c-2.3,1.8-3.8,1.2-4.3-1.7c-0.6-4,0.1-8,1.3-11.8c1-3.2,4.5-4.5,7.6-3
		C213.5,152.9,214.1,155.9,211.4,161.3z"/>
	<path class="st15" d="M177.1,138.5c-1.4,2.4-3.6,5.2-6.4,7.5c-0.9,0.7-1.9,1.6-3.2,1c-1.4-0.6-1.4-1.9-1.4-3
		c-0.3-3.9,0.6-7.7,1.9-11.4c1-2.9,4.7-4.2,7.5-3C178.3,130.9,179.2,134.3,177.1,138.5z"/>
	<path class="st15" d="M206.1,257.5c-1.4,2.9-3.4,5.4-5.6,7.6c-0.9,0.9-2.1,1.8-3.4,1.3c-1.4-0.5-1.5-2-1.6-3.3
		c-0.3-3.6,0.1-7.2,1.1-10.6c0.9-3.4,4.3-5.1,7.5-3.9c2.8,1.1,4,4.6,2.6,7.7C206.5,256.7,206.3,257.1,206.1,257.5z"/>
	<path class="st15" d="M269.8,219.8c-1.4,2.4-3.6,5.2-6.4,7.5c-0.9,0.7-1.9,1.6-3.2,1c-1.4-0.6-1.4-1.9-1.4-3
		c-0.3-3.9,0.6-7.7,1.9-11.4c1-2.9,4.7-4.2,7.5-3C271,212.2,271.8,215.6,269.8,219.8z"/>
	<path class="st15" d="M188.7,216.9c-1.1,2-3.2,4.8-6,7.1c-2.3,1.8-3.8,1.3-4.1-1.5c-0.6-4.3,0-8.6,1.5-12.6
		c1.1-2.8,4.5-3.8,7.3-2.5C190.7,209,191.3,211.6,188.7,216.9z"/>
	<path class="st15" d="M267,279.5c-1.6,2.6-3.7,5.6-6.9,7.8c-2.2,1.5-3.7,1-4-1.6c-0.6-4.4,0.3-8.7,2-12.8c1.1-2.6,4.9-3.6,7.2-2.4
		C268.3,272.1,269.1,275.3,267,279.5z"/>
	<path class="st15" d="M222.8,309.9c-1.4,2.4-3.6,5.3-6.4,7.5c-2.6,2-4.4,1.2-4.5-2.1c-0.2-3.8,0.5-7.6,1.8-11.2
		c1.1-3,4.6-4.5,7.4-3.3C224,302.1,225,305.6,222.8,309.9z"/>
	<path class="st15" d="M228.8,224.7c-0.9,1.7-3,4.5-5.7,6.7c-2.3,1.8-3.8,1.2-4.3-1.7c-0.6-4,0.1-8,1.3-11.8c1-3.2,4.5-4.5,7.6-3
		C230.8,216.3,231.4,219.3,228.8,224.7z"/>
	<path class="st15" d="M144.8,335.4c-1.4,2.9-3.4,5.4-5.6,7.6c-0.9,0.9-2.1,1.8-3.4,1.3c-1.4-0.5-1.5-2-1.6-3.3
		c-0.3-3.6,0.1-7.2,1.1-10.6c0.9-3.4,4.3-5.1,7.5-3.9c2.8,1.1,4,4.6,2.6,7.7C145.2,334.6,145,335,144.8,335.4z"/>
	<path class="st15" d="M177.7,299.3c-1.4,2.4-3.6,5.2-6.4,7.5c-0.9,0.7-1.9,1.6-3.2,1c-1.4-0.6-1.4-1.9-1.4-3
		c-0.3-3.9,0.6-7.7,1.9-11.4c1-2.9,4.7-4.2,7.5-3C178.9,291.7,179.8,295.1,177.7,299.3z"/>
	<path class="st15" d="M121,301.4c-1.1,2-3.2,4.8-6,7.1c-2.3,1.8-3.8,1.3-4.1-1.5c-0.6-4.3,0-8.6,1.5-12.6c1.1-2.8,4.5-3.8,7.3-2.5
		C123,293.5,123.7,296.1,121,301.4z"/>
	<path class="st15" d="M183.3,341.3c-1.6,2.6-3.7,5.6-6.9,7.8c-2.2,1.5-3.7,1-4-1.6c-0.6-4.4,0.3-8.7,2-12.8
		c1.1-2.6,4.9-3.6,7.2-2.4C184.6,333.9,185.3,337.2,183.3,341.3z"/>
	<path class="st15" d="M171.6,382.5c-1.4,2.4-3.6,5.3-6.4,7.5c-2.6,2-4.4,1.2-4.5-2.1c-0.2-3.8,0.5-7.6,1.8-11.2
		c1.1-3,4.6-4.5,7.4-3.3C172.8,374.8,173.7,378.2,171.6,382.5z"/>
	<path class="st15" d="M148.3,253.4c-0.9,1.7-3,4.5-5.7,6.7c-2.3,1.8-3.8,1.2-4.3-1.7c-0.6-4,0.1-8,1.3-11.8c1-3.2,4.5-4.5,7.6-3
		C150.3,245,151,248,148.3,253.4z"/>
	<path class="st15" d="M101.5,378.3c-0.6,4.8-3.9,7.8-7.4,10.6c-1.5,1.3-2.8,0.7-3.1-1.3c-0.4-2.1-0.1-4.1,0.3-6.2
		c0.2-0.9,0.4-1.7,0.7-2.6c0.8-2,1.5-4.3,4.2-4.5C99,374.3,100.6,375.9,101.5,378.3z"/>
	<path class="st15" d="M97.5,344.3c-1.3,2.8-2.8,4.9-4.6,6.7c-1.9,1.9-3.4,1.4-3.9-1.3c-0.6-3.2-0.3-6.4,0.5-9.4
		c0.8-3,3.3-4.2,6-3.2c2.9,1.1,3.8,3.3,2.5,6.2C97.7,343.8,97.5,344.3,97.5,344.3z"/>
	<path class="st15" d="M72.1,390.7c3.2,2.9,3.2,4.3,0,9.6c-0.8,1.3-1.6,3.2-3.4,2.8c-1.7-0.4-1.6-2.4-1.6-3.8
		c-0.1-3.3-1.3-7.2,3.2-8.8C70.9,390.7,71.5,391,72.1,390.7z"/>
	<path class="st15" d="M63.4,372.5c-0.6,1.4-1.3,2.7-2.3,3.8c-1.5,1.6-2.5,1-3-0.6c-0.8-2.5-1-5.1-0.4-7.7c0.5-2.4,2.7-3.6,4.7-2.9
		c1.9,0.6,2.9,3.1,2.1,5.3C64.2,371.1,63.8,371.8,63.4,372.5z"/>
	<path class="st15" d="M123.8,393.5c-0.6,4.8-3.9,7.8-7.4,10.6c-1.5,1.3-2.8,0.7-3.1-1.3c-0.4-2.1-0.1-4.1,0.3-6.2
		c0.2-0.9,0.4-1.7,0.7-2.6c0.8-2,1.5-4.3,4.2-4.5C121.3,389.5,122.8,391.1,123.8,393.5z"/>
	<path class="st15" d="M75.9,318.3c-1.3,2.8-2.8,4.9-4.6,6.7c-1.9,1.9-3.4,1.4-3.9-1.3c-0.6-3.2-0.3-6.4,0.5-9.4
		c0.8-3,3.3-4.2,6-3.2c2.9,1.1,3.8,3.3,2.5,6.2C76.1,317.8,75.9,318.3,75.9,318.3z"/>
	<path class="st15" d="M51.9,322.8c3.2,2.9,3.2,4.3,0,9.6c-0.8,1.3-1.6,3.2-3.4,2.8c-1.7-0.4-1.6-2.4-1.6-3.8
		c-0.1-3.3-1.3-7.2,3.2-8.8C50.6,322.8,51.2,323.1,51.9,322.8z"/>
	<path class="st15" d="M43.2,304.6c-0.6,1.4-1.3,2.7-2.3,3.8c-1.5,1.6-2.5,1-3-0.6c-0.8-2.5-1-5.1-0.4-7.7c0.5-2.4,2.7-3.6,4.7-2.9
		c1.9,0.6,2.9,3.1,2.1,5.3C43.9,303.2,43.5,303.9,43.2,304.6z"/>
	<path class="st15" d="M45.9,263.9c3.2,2.9,3.2,4.3,0,9.6c-0.8,1.3-1.6,3.2-3.4,2.8c-1.7-0.4-1.6-2.4-1.6-3.8
		c-0.1-3.3-1.3-7.2,3.2-8.8C44.6,264,45.2,264.3,45.9,263.9z"/>
</g>
</svg>
